<svg xmlns="http://www.w3.org/2000/svg" viewBox="0 0 960 540" role="img" aria-labelledby="title desc">
  <title id="title">浏览器标注和电脑操作示意图</title>
  <desc id="desc">展示在 Codex App 中使用浏览器评论页面，或用 Computer Use 操作桌面应用。</desc>
  <rect width="960" height="540" rx="28" fill="#faf8f4"/>
  <rect x="58" y="62" width="520" height="386" rx="20" fill="#fff" stroke="#e8e4dc"/>
  <rect x="58" y="62" width="520" height="48" rx="20" fill="#eceefb"/>
  <circle cx="94" cy="86" r="6" fill="#e8704a"/>
  <circle cx="116" cy="86" r="6" fill="#c97a1f"/>
  <circle cx="138" cy="86" r="6" fill="#2f9e6e"/>
  <text x="174" y="92" font-family="PingFang SC, Arial, sans-serif" font-size="15" fill="#2a37a0">http://localhost:3000</text>
  <rect x="96" y="146" width="220" height="34" rx="8" fill="#1f2230"/>
  <rect x="96" y="206" width="420" height="78" rx="14" fill="#f4f1ea"/>
  <rect x="96" y="306" width="124" height="42" rx="10" fill="#3e4ecc"/>
  <rect x="248" y="306" width="124" height="42" rx="10" fill="#fff" stroke="#e8e4dc"/>
  <path d="M424 290 L520 206" stroke="#e8704a" stroke-width="4" fill="none"/>
  <rect x="472" y="166" width="198" height="86" rx="14" fill="#fbede5" stroke="#e8704a"/>
  <text x="492" y="198" font-family="PingFang SC, Arial, sans-serif" font-size="14" font-weight="700" fill="#8b3a18">页面标注</text>
  <text x="492" y="226" font-family="PingFang SC, Arial, sans-serif" font-size="13" fill="#8b3a18">这个按钮在手机上溢出</text>
  <rect x="630" y="82" width="272" height="336" rx="22" fill="#1c1f2b"/>
  <text x="660" y="128" font-family="PingFang SC, Arial, sans-serif" font-size="22" font-weight="700" fill="#e7e9f1">Computer Use</text>
  <text x="660" y="166" font-family="PingFang SC, Arial, sans-serif" font-size="15" fill="#cfd3ee">让 Codex 看见并操作桌面应用</text>
  <rect x="660" y="206" width="212" height="124" rx="14" fill="#fff"/>
  <rect x="684" y="230" width="122" height="14" rx="7" fill="#d9d5cd"/>
  <rect x="684" y="260" width="164" height="14" rx="7" fill="#d9d5cd"/>
  <rect x="684" y="294" width="82" height="22" rx="8" fill="#3e4ecc"/>
  <path d="M824 304 L858 338 L838 342 L850 372" stroke="#ffb37b" stroke-width="6" stroke-linecap="round" stroke-linejoin="round" fill="none"/>
  <text x="660" y="368" font-family="PingFang SC, Arial, sans-serif" font-size="14" fill="#e7e9f1">适合 GUI 测试、改设置、复现问题</text>
</svg>
